<svg width="85" height="38" viewBox="0 0 85 38" fill="none" xmlns="http://www.w3.org/2000/svg">
<rect width="84.2" height="38" rx="6" fill="#273040"/>
<path d="M40.7603 25.2168H39.2427V18.9277H36.6313V17.6836H39.2427V12.8574H40.7603V25.2168ZM36.686 14.1699C36.6815 15.4551 36.5037 16.6286 36.1528 17.6904C35.8065 18.7523 35.2231 19.7321 34.4028 20.6299C33.5871 21.5231 32.4933 22.3092 31.1216 22.9883L30.3286 21.7988C31.8918 21.0332 33.0539 20.1263 33.8149 19.0781C34.576 18.0299 35.0226 16.7949 35.1548 15.373H30.9028V14.1699H36.686ZM47.0083 14.6758C47.0037 15.127 47.1131 15.569 47.3364 16.002C47.5597 16.4303 47.8879 16.8154 48.3208 17.1572C48.7583 17.4945 49.2824 17.752 49.8931 17.9297L49.1821 19.1328C48.4985 18.9323 47.9084 18.6292 47.4116 18.2236C46.9149 17.8135 46.5252 17.3304 46.2427 16.7744C45.9556 17.3896 45.5522 17.9274 45.0327 18.3877C44.5177 18.848 43.9093 19.1875 43.2075 19.4062L42.4556 18.2168C43.0799 18.0117 43.62 17.7223 44.0757 17.3486C44.5314 16.9749 44.8778 16.5534 45.1147 16.084C45.3563 15.6146 45.4771 15.1406 45.4771 14.6621V14.6211H42.8794V13.3906H49.5649V14.6211H47.0083V14.6758ZM52.8599 19.1875H51.3423V16.6855H49.2231V15.4688H51.3423V12.8574H52.8599V19.1875ZM52.8599 22.9199H46.2427V23.8906H53.2563V25.0801H44.7251V21.7852H51.3423V20.9102H44.7114V19.707H52.8599V22.9199Z" fill="white" fill-opacity="0.4"/>
</svg>
