<svg preserveAspectRatio="none" width="100%" height="100%" overflow="visible" style="display: block;" viewBox="0 0 10 10" fill="none" xmlns="http://www.w3.org/2000/svg">
<g id="check" clip-path="url(#clip0_0_4)">
<path id="icon" d="M8.15 4.1C8.525 4.1 8.84375 3.96875 9.10625 3.70625C9.36875 3.44375 9.5 3.125 9.5 2.75C9.5 2.375 9.36875 2.05625 9.10625 1.79375C8.84375 1.53125 8.525 1.4 8.15 1.4C7.775 1.4 7.45625 1.53125 7.19375 1.79375C6.93125 2.05625 6.8 2.375 6.8 2.75C6.8 3.125 6.93125 3.44375 7.19375 3.70625C7.45625 3.96875 7.775 4.1 8.15 4.1ZM1.85 4.1C2.225 4.1 2.54375 3.96875 2.80625 3.70625C3.06875 3.44375 3.2 3.125 3.2 2.75C3.2 2.375 3.06875 2.05625 2.80625 1.79375C2.54375 1.53125 2.225 1.4 1.85 1.4C1.475 1.4 1.15625 1.53125 0.89375 1.79375C0.63125 2.05625 0.5 2.375 0.5 2.75C0.5 3.125 0.63125 3.44375 0.89375 3.70625C1.15625 3.96875 1.475 4.1 1.85 4.1ZM5 9.95C6.02 9.95 6.94625 9.66125 7.77875 9.08375C8.61125 8.50625 9.215 7.745 9.59 6.8H0.41C0.785 7.745 1.38875 8.50625 2.22125 9.08375C3.05375 9.66125 3.98 9.95 5 9.95ZM5 14C3.755 14 2.585 13.7637 1.49 13.2912C0.395 12.8187 -0.5575 12.1775 -1.3675 11.3675C-2.1775 10.5575 -2.81875 9.605 -3.29125 8.51C-3.76375 7.415 -4 6.245 -4 5C-4 3.755 -3.76375 2.585 -3.29125 1.49C-2.81875 0.395 -2.1775 -0.5575 -1.3675 -1.3675C-0.5575 -2.1775 0.395 -2.81875 1.49 -3.29125C2.585 -3.76375 3.755 -4 5 -4C6.245 -4 7.415 -3.76375 8.51 -3.29125C9.605 -2.81875 10.5575 -2.1775 11.3675 -1.3675C12.1775 -0.5575 12.8187 0.395 13.2912 1.49C13.7637 2.585 14 3.755 14 5C14 6.245 13.7637 7.415 13.2912 8.51C12.8187 9.605 12.1775 10.5575 11.3675 11.3675C10.5575 12.1775 9.605 12.8187 8.51 13.2912C7.415 13.7637 6.245 14 5 14ZM5 12.2C7.01 12.2 8.7125 11.5025 10.1075 10.1075C11.5025 8.7125 12.2 7.01 12.2 5C12.2 2.99 11.5025 1.2875 10.1075 -0.1075C8.7125 -1.5025 7.01 -2.2 5 -2.2C2.99 -2.2 1.2875 -1.5025 -0.1075 -0.1075C-1.5025 1.2875 -2.2 2.99 -2.2 5C-2.2 7.01 -1.5025 8.7125 -0.1075 10.1075C1.2875 11.5025 2.99 12.2 5 12.2Z" fill="var(--fill-0, white)"/>
</g>
<defs>
<clipPath id="clip0_0_4">
<rect width="10" height="10" fill="white"/>
</clipPath>
</defs>
</svg>
