<svg preserveAspectRatio="none" width="100%" height="100%" overflow="visible" style="display: block;" viewBox="0 0 24 24" fill="none" xmlns="http://www.w3.org/2000/svg">
<g id="SVG">
<path id="Vector" d="M15.8 20.7993V18.7993C15.8 17.7385 15.3786 16.721 14.6284 15.9709C13.8783 15.2207 12.8609 14.7993 11.8 14.7993H5.8C4.73913 14.7993 3.72172 15.2207 2.97157 15.9709C2.22143 16.721 1.8 17.7385 1.8 18.7993V20.7993" stroke="var(--stroke-0, white)" stroke-width="1.66667" stroke-linecap="round" stroke-linejoin="round"/>
<path id="Vector_2" d="M8.8 10.7993C11.0091 10.7993 12.8 9.00846 12.8 6.79932C12.8 4.59018 11.0091 2.79932 8.8 2.79932C6.59086 2.79932 4.8 4.59018 4.8 6.79932C4.8 9.00846 6.59086 10.7993 8.8 10.7993Z" stroke="var(--stroke-0, white)" stroke-width="1.66667" stroke-linecap="round" stroke-linejoin="round"/>
<path id="Vector_3" d="M21.7992 20.7994V18.7994C21.7986 17.9131 21.5036 17.0522 20.9606 16.3517C20.4176 15.6513 19.6573 15.151 18.7992 14.9294" stroke="var(--stroke-0, white)" stroke-width="1.66667" stroke-linecap="round" stroke-linejoin="round"/>
<path id="Vector_4" d="M15.7992 2.92939C16.6596 3.1497 17.4223 3.6501 17.9669 4.3517C18.5115 5.05331 18.8071 5.91622 18.8071 6.80439C18.8071 7.69256 18.5115 8.55547 17.9669 9.25708C17.4223 9.95869 16.6596 10.4591 15.7992 10.6794" stroke="var(--stroke-0, white)" stroke-width="1.66667" stroke-linecap="round" stroke-linejoin="round"/>
</g>
</svg>
