<svg preserveAspectRatio="none" width="100%" height="100%" overflow="visible" style="display: block;" viewBox="0 0 33.4993 22.1667" fill="none" xmlns="http://www.w3.org/2000/svg">
<g id="Vector">
<path d="M1.83268 3.33333H31.8327C32.2747 3.33333 32.6986 3.15774 33.0112 2.84518C33.3238 2.53262 33.4993 2.10869 33.4993 1.66667C33.4993 1.22464 33.3238 0.800716 33.0112 0.488156C32.6986 0.175595 32.2747 0 31.8327 0H1.83268C1.39065 0 0.966732 0.175595 0.654171 0.488156C0.34161 0.800716 0.166016 1.22464 0.166016 1.66667C0.166016 2.10869 0.34161 2.53262 0.654171 2.84518C0.966732 3.15774 1.39065 3.33333 1.83268 3.33333Z" fill="var(--fill-0, white)" fill-opacity="0.6"/>
<path d="M1.66667 18.8333H31.6667C32.1087 18.8333 32.5326 19.0089 32.8452 19.3215C33.1577 19.634 33.3333 20.058 33.3333 20.5C33.3333 20.942 33.1577 21.3659 32.8452 21.6785C32.5326 21.9911 32.1087 22.1667 31.6667 22.1667H1.66667C1.22464 22.1667 0.800716 21.9911 0.488155 21.6785C0.175595 21.3659 0 20.942 0 20.5C0 20.058 0.175595 19.634 0.488155 19.3215C0.800716 19.0089 1.22464 18.8333 1.66667 18.8333Z" fill="var(--fill-0, white)" fill-opacity="0.6"/>
<path d="M1.83268 3.33333H31.8327C32.2747 3.33333 32.6986 3.15774 33.0112 2.84518C33.3238 2.53262 33.4993 2.10869 33.4993 1.66667C33.4993 1.22464 33.3238 0.800716 33.0112 0.488156C32.6986 0.175595 32.2747 0 31.8327 0H1.83268C1.39065 0 0.966732 0.175595 0.654171 0.488156C0.34161 0.800716 0.166016 1.22464 0.166016 1.66667C0.166016 2.10869 0.34161 2.53262 0.654171 2.84518C0.966732 3.15774 1.39065 3.33333 1.83268 3.33333Z" fill="var(--fill-0, white)" fill-opacity="0.6"/>
<path d="M1.66667 9.49998H31.6667C32.1087 9.49998 32.5326 9.67558 32.8452 9.98814C33.1577 10.3007 33.3333 10.7246 33.3333 11.1667C33.3333 11.6087 33.1577 12.0326 32.8452 12.3452C32.5326 12.6577 32.1087 12.8333 31.6667 12.8333H1.66667C1.22464 12.8333 0.800716 12.6577 0.488155 12.3452C0.175595 12.0326 0 11.6087 0 11.1667C0 10.7246 0.175595 10.3007 0.488155 9.98814C0.800716 9.67558 1.22464 9.49998 1.66667 9.49998Z" fill="var(--fill-0, white)" fill-opacity="0.6"/>
</g>
</svg>
