<svg preserveAspectRatio="none" width="100%" height="100%" overflow="visible" style="display: block;" viewBox="0 0 50 50" fill="none" xmlns="http://www.w3.org/2000/svg">
<g id="Frame 1707481961">
<g id="Union">
<path d="M17.6034 20.5624C20.4761 17.951 24.897 17.2648 28.3173 19.83C29.3949 20.6383 29.6128 22.1674 28.8046 23.245C27.9963 24.3225 26.4681 24.5405 25.3905 23.7323C24.1433 22.7969 22.3487 22.8785 20.9364 24.1249L14.9462 30.3075L14.9198 30.3359C13.5308 31.7249 13.5308 34.0826 14.9198 35.4716C16.3088 36.8605 18.6666 36.8606 20.0556 35.4716L20.6405 34.8866C21.593 33.9341 23.1382 33.9341 24.0907 34.8866C25.0429 35.8391 25.043 37.3834 24.0907 38.3359L23.5048 38.9208C20.2108 42.2148 14.7637 42.2148 11.4696 38.9208C8.18099 35.6318 8.17613 30.1967 11.455 26.9013L17.4921 20.6698C17.528 20.6328 17.5653 20.5971 17.6034 20.5624ZM26.495 11.4706C29.789 8.17661 35.2362 8.17661 38.5302 11.4706C41.824 14.7647 41.8241 20.2118 38.5302 23.5058L32.5185 29.5165C29.6573 32.6147 25.0015 32.7778 21.7938 30.6396C20.673 29.8924 20.3699 28.3776 21.1171 27.2568C21.8643 26.1363 23.3782 25.834 24.4989 26.581C25.958 27.5537 27.9059 27.3386 28.9511 26.1894C28.977 26.1609 29.004 26.1326 29.0312 26.1054L35.081 20.0556C36.4694 18.6666 36.4696 16.3087 35.081 14.9198C33.7417 13.5806 31.5013 13.533 30.0976 14.7763L29.8593 15.1337C29.1121 16.2545 27.5973 16.5575 26.4765 15.8105C25.3557 15.0633 25.0526 13.5485 25.7997 12.4277L26.1903 11.8427C26.2794 11.7091 26.3815 11.5842 26.495 11.4706Z" fill="var(--fill-0, #60616C)"/>
<path d="M17.6034 20.5624L17.2671 20.1924L17.2671 20.1925L17.6034 20.5624ZM28.3173 19.83L28.6173 19.43L28.6173 19.43L28.3173 19.83ZM28.8046 23.245L29.2046 23.5451L29.2046 23.545L28.8046 23.245ZM25.3905 23.7323L25.0905 24.1323L25.0905 24.1324L25.3905 23.7323ZM20.9364 24.1249L20.6056 23.75C20.5958 23.7587 20.5864 23.7677 20.5773 23.777L20.9364 24.1249ZM14.9462 30.3075L14.587 29.9596L14.5802 29.9668L14.9462 30.3075ZM14.9198 30.3359L15.2734 30.6894C15.2776 30.6852 15.2817 30.6809 15.2858 30.6766L14.9198 30.3359ZM14.9198 35.4716L14.5663 35.8252L14.5663 35.8252L14.9198 35.4716ZM20.0556 35.4716L20.4091 35.8252V35.8252L20.0556 35.4716ZM20.6405 34.8866L20.287 34.5331H20.287L20.6405 34.8866ZM24.0907 34.8866L24.4443 34.5332L24.4443 34.5331L24.0907 34.8866ZM24.0907 38.3359L24.444 38.6897L24.4443 38.6894L24.0907 38.3359ZM23.5048 38.9208L23.1515 38.567L23.1512 38.5673L23.5048 38.9208ZM11.4696 38.9208L11.1161 39.2744L11.1161 39.2744L11.4696 38.9208ZM11.455 26.9013L11.8095 27.254L11.8141 27.2492L11.455 26.9013ZM17.4921 20.6698L17.133 20.3219L17.133 20.3219L17.4921 20.6698ZM26.495 11.4706L26.1415 11.1171L26.1415 11.1171L26.495 11.4706ZM38.5302 11.4706L38.8837 11.1171L38.8837 11.1171L38.5302 11.4706ZM38.5302 23.5058L38.8837 23.8594L38.8837 23.8593L38.5302 23.5058ZM32.5185 29.5165L32.1649 29.1629C32.1602 29.1676 32.1556 29.1724 32.1511 29.1773L32.5185 29.5165ZM21.7938 30.6396L21.5165 31.0556L21.5165 31.0556L21.7938 30.6396ZM21.1171 27.2568L20.7011 26.9793L20.7011 26.9794L21.1171 27.2568ZM24.4989 26.581L24.7763 26.165L24.7762 26.1649L24.4989 26.581ZM28.9511 26.1894L29.321 26.5258L29.3211 26.5257L28.9511 26.1894ZM29.0312 26.1054L28.6776 25.7518L28.6775 25.7519L29.0312 26.1054ZM35.081 20.0556L35.4345 20.4091L35.4346 20.4091L35.081 20.0556ZM35.081 14.9198L35.4345 14.5663L35.4345 14.5663L35.081 14.9198ZM30.0976 14.7763L29.7661 14.402C29.7338 14.4305 29.7054 14.4631 29.6815 14.4989L30.0976 14.7763ZM29.8593 15.1337L29.4433 14.8564V14.8564L29.8593 15.1337ZM26.4765 15.8105L26.1991 16.2265L26.1992 16.2265L26.4765 15.8105ZM25.7997 12.4277L25.3839 12.15L25.3837 12.1503L25.7997 12.4277ZM26.1903 11.8427L26.6061 12.1204L26.6064 12.12L26.1903 11.8427ZM17.6034 20.5624L17.9397 20.9324C20.6655 18.4546 24.82 17.832 28.0173 20.23L28.3173 19.83L28.6173 19.43C24.974 16.6975 20.2868 17.4473 17.2671 20.1924L17.6034 20.5624ZM28.3173 19.83L28.0173 20.23C28.8738 20.8724 29.0472 22.0882 28.4046 22.945L28.8046 23.245L29.2046 23.545C30.1784 22.2467 29.9159 20.4041 28.6173 19.43L28.3173 19.83ZM28.8046 23.245L28.4046 22.945C27.7621 23.8015 26.5473 23.9749 25.6905 23.3323L25.3905 23.7323L25.0905 24.1324C26.3889 25.1061 28.2306 24.8436 29.2046 23.5451L28.8046 23.245ZM25.3905 23.7323L25.6905 23.3323C24.2295 22.2365 22.1719 22.3677 20.6056 23.75L20.9364 24.1249L21.2673 24.4998C22.5255 23.3894 24.0571 23.3573 25.0905 24.1323L25.3905 23.7323ZM20.9364 24.1249L20.5773 23.777L14.5871 29.9596L14.9462 30.3075L15.3053 30.6555L21.2955 24.4728L20.9364 24.1249ZM14.9462 30.3075L14.5802 29.9668L14.5539 29.9952L14.9198 30.3359L15.2858 30.6766L15.3121 30.6483L14.9462 30.3075ZM14.9198 30.3359L14.5663 29.9823C12.982 31.5666 12.982 34.2409 14.5663 35.8252L14.9198 35.4716L15.2734 35.1181C14.0796 33.9243 14.0796 31.8831 15.2734 30.6894L14.9198 30.3359ZM14.9198 35.4716L14.5663 35.8252C16.1505 37.4093 18.8249 37.4094 20.4091 35.8252L20.0556 35.4716L19.702 35.1181C18.5083 36.3117 16.4671 36.3117 15.2734 35.118L14.9198 35.4716ZM20.0556 35.4716L20.4091 35.8252L20.9941 35.2402L20.6405 34.8866L20.287 34.5331L19.702 35.1181L20.0556 35.4716ZM20.6405 34.8866L20.9941 35.2402C21.7513 34.4829 22.9799 34.4829 23.7372 35.2402L24.0907 34.8866L24.4443 34.5331C23.2965 33.3853 21.4348 33.3853 20.287 34.5331L20.6405 34.8866ZM24.0907 34.8866L23.7371 35.2401C24.4941 35.9974 24.4941 37.2252 23.7371 37.9823L24.0907 38.3359L24.4443 38.6894C25.5918 37.5417 25.5916 35.6809 24.4443 34.5332L24.0907 34.8866ZM24.0907 38.3359L23.7375 37.982L23.1515 38.567L23.5048 38.9208L23.858 39.2747L24.444 38.6897L24.0907 38.3359ZM23.5048 38.9208L23.1512 38.5673C20.0525 41.666 14.9219 41.666 11.8232 38.5673L11.4696 38.9208L11.1161 39.2744C14.6054 42.7637 20.3691 42.7637 23.8583 39.2744L23.5048 38.9208ZM11.4696 38.9208L11.8232 38.5673C8.72954 35.4732 8.72491 30.3541 11.8094 27.254L11.455 26.9013L11.1005 26.5486C7.62735 30.0394 7.63245 35.7903 11.1161 39.2744L11.4696 38.9208ZM11.455 26.9013L11.8141 27.2492L17.8512 21.0178L17.4921 20.6698L17.133 20.3219L11.0959 26.5534L11.455 26.9013ZM17.4921 20.6698L17.8512 21.0178C17.8784 20.9897 17.9079 20.9613 17.9398 20.9324L17.6034 20.5624L17.2671 20.1925C17.2227 20.2328 17.1775 20.276 17.133 20.3219L17.4921 20.6698ZM26.495 11.4706L26.8486 11.8242C29.9473 8.72542 35.0779 8.72542 38.1766 11.8242L38.5302 11.4706L38.8837 11.1171C35.3944 7.62779 29.6308 7.62779 26.1415 11.1171L26.495 11.4706ZM38.5302 11.4706L38.1766 11.8242C41.2752 14.923 41.2753 20.0536 38.1766 23.1522L38.5302 23.5058L38.8837 23.8593C42.373 20.3701 42.3728 14.6064 38.8837 11.1171L38.5302 11.4706ZM38.5302 23.5058L38.1767 23.1522L32.1649 29.1629L32.5185 29.5165L32.872 29.8701L38.8837 23.8594L38.5302 23.5058ZM32.5185 29.5165L32.1511 29.1773C29.4772 32.0727 25.1005 32.2429 22.0712 30.2235L21.7938 30.6396L21.5165 31.0556C24.9026 33.3128 29.8374 33.1567 32.8858 29.8558L32.5185 29.5165ZM21.7938 30.6396L22.0712 30.2235C21.1801 29.6295 20.9391 28.4251 21.5331 27.5341L21.1171 27.2568L20.7011 26.9794C19.8006 28.3301 20.166 30.1552 21.5165 31.0556L21.7938 30.6396ZM21.1171 27.2568L21.5331 27.5342C22.1271 26.6435 23.3305 26.4031 24.2216 26.997L24.4989 26.581L24.7762 26.1649C23.4259 25.2649 21.6016 25.629 20.7011 26.9793L21.1171 27.2568ZM24.4989 26.581L24.2216 26.997C25.8657 28.0931 28.0932 27.8757 29.321 26.5258L28.9511 26.1894L28.5812 25.853C27.7186 26.8014 26.0504 27.0143 24.7763 26.165L24.4989 26.581ZM28.9511 26.1894L29.3211 26.5257C29.3415 26.5032 29.3631 26.4806 29.3848 26.4589L29.0312 26.1054L28.6775 25.7519C28.6448 25.7846 28.6124 25.8186 28.5811 25.853L28.9511 26.1894ZM29.0312 26.1054L29.3847 26.4589L35.4345 20.4091L35.081 20.0556L34.7274 19.702L28.6776 25.7518L29.0312 26.1054ZM35.081 20.0556L35.4346 20.4091C37.0182 18.8249 37.0184 16.1505 35.4345 14.5663L35.081 14.9198L34.7274 15.2734C35.9208 16.4669 35.9207 18.5083 34.7273 19.7021L35.081 20.0556ZM35.081 14.9198L35.4345 14.5663C33.9059 13.0376 31.3651 12.9857 29.7661 14.402L30.0976 14.7763L30.4291 15.1506C31.6376 14.0803 33.5776 14.1236 34.7274 15.2734L35.081 14.9198ZM30.0976 14.7763L29.6815 14.4989L29.4433 14.8564L29.8593 15.1337L30.2753 15.4111L30.5136 15.0536L30.0976 14.7763ZM29.8593 15.1337L29.4433 14.8564C28.8493 15.7474 27.6448 15.9883 26.7538 15.3944L26.4765 15.8105L26.1992 16.2265C27.5497 17.1267 29.375 16.7616 30.2753 15.4111L29.8593 15.1337ZM26.4765 15.8105L26.7538 15.3944C25.8628 14.8004 25.6218 13.596 26.2158 12.705L25.7997 12.4277L25.3837 12.1503C24.4834 13.5009 24.8486 15.3262 26.1991 16.2265L26.4765 15.8105ZM25.7997 12.4277L26.2155 12.7053L26.6061 12.1204L26.1903 11.8427L25.7745 11.565L25.3839 12.15L25.7997 12.4277ZM26.1903 11.8427L26.6064 12.12C26.6775 12.0134 26.7587 11.9141 26.8486 11.8242L26.495 11.4706L26.1415 11.1171C26.0042 11.2543 25.8814 11.4048 25.7743 11.5653L26.1903 11.8427Z" fill="var(--stroke-0, #E5E5F1)"/>
</g>
</g>
</svg>
