<svg width="50" height="50" viewBox="0 0 50 50" fill="none" xmlns="http://www.w3.org/2000/svg">
<path d="M17.6034 20.5624C20.4761 17.951 24.897 17.2648 28.3173 19.83C29.3949 20.6383 29.6128 22.1674 28.8046 23.245C27.9963 24.3225 26.4681 24.5405 25.3905 23.7323C24.1433 22.7969 22.3487 22.8785 20.9364 24.1249L14.9462 30.3075L14.9198 30.3359C13.5308 31.7249 13.5308 34.0826 14.9198 35.4716C16.3088 36.8605 18.6666 36.8606 20.0556 35.4716L20.6405 34.8866C21.593 33.9341 23.1382 33.9341 24.0907 34.8866C25.0429 35.8391 25.043 37.3834 24.0907 38.3359L23.5048 38.9208C20.2108 42.2148 14.7637 42.2148 11.4696 38.9208C8.18099 35.6318 8.17613 30.1967 11.455 26.9013L17.4921 20.6698C17.528 20.6328 17.5653 20.5971 17.6034 20.5624ZM26.495 11.4706C29.789 8.17661 35.2362 8.17661 38.5302 11.4706C41.824 14.7647 41.8241 20.2118 38.5302 23.5058L32.5185 29.5165C29.6573 32.6147 25.0015 32.7778 21.7938 30.6396C20.673 29.8924 20.3699 28.3776 21.1171 27.2568C21.8643 26.1363 23.3782 25.834 24.4989 26.581C25.958 27.5537 27.9059 27.3386 28.9511 26.1894C28.977 26.1609 29.004 26.1326 29.0312 26.1054L35.081 20.0556C36.4694 18.6666 36.4696 16.3087 35.081 14.9198C33.7417 13.5806 31.5013 13.533 30.0976 14.7763L29.8593 15.1337C29.1121 16.2545 27.5973 16.5575 26.4765 15.8105C25.3557 15.0633 25.0526 13.5485 25.7997 12.4277L26.1903 11.8427C26.2794 11.7091 26.3815 11.5842 26.495 11.4706Z" fill="#60616C"/>
</svg>
