<svg preserveAspectRatio="none" width="100%" height="100%" overflow="visible" style="display: block;" viewBox="0 0 50 50" fill="none" xmlns="http://www.w3.org/2000/svg">
<g id="Frame 1707481961">
<path id="Vector" d="M26 18C22.7568 18 20 20.7568 20 24C20 27.2432 22.7568 30 26 30C29.2432 30 32 27.2432 32 24C32 20.7568 29.2432 18 26 18Z" fill="var(--fill-0, #60616C)"/>
<path id="Vector_2" d="M33.2636 7H18.8909C13.3273 7 9 11.3273 9 16.7364V31.1091C9 36.6727 13.3273 41 18.8909 41H33.2636C38.6727 41 43 36.6727 43 31.1091V16.7364C43 11.3273 38.6727 7 33.2636 7ZM26 32.9636C21.0545 32.9636 17.1909 28.9455 17.1909 24.1545C17.1909 19.3636 21.0545 15.1909 26 15.1909C30.9455 15.1909 34.8091 19.2091 34.8091 24C34.8091 28.7909 30.9455 32.9636 26 32.9636ZM35.1182 17.0455C34.0364 17.0455 33.1091 16.1182 33.1091 15.0364C33.1091 13.9545 34.0364 13.0273 35.1182 13.0273C36.2 13.0273 37.1273 13.9545 37.1273 15.0364C37.1273 16.1182 36.2 17.0455 35.1182 17.0455Z" fill="var(--fill-0, #60616C)"/>
</g>
</svg>
