<svg preserveAspectRatio="none" width="100%" height="100%" overflow="visible" style="display: block;" viewBox="0 0 22 22" fill="none" xmlns="http://www.w3.org/2000/svg">
<path id="Vector" d="M13.5825 10.9984L21.4582 3.13991C21.8031 2.79497 21.9969 2.32714 21.9969 1.83932C21.9969 1.3515 21.8031 0.883663 21.4582 0.538724C21.1133 0.193785 20.6456 0 20.1578 0C19.6701 0 19.2023 0.193785 18.8574 0.538724L11 8.41557L3.14259 0.538724C2.7977 0.193785 2.32993 -3.63452e-09 1.84218 0C1.35444 3.63453e-09 0.886664 0.193785 0.541773 0.538724C0.196883 0.883663 0.00312575 1.3515 0.00312575 1.83932C0.00312574 2.32714 0.196883 2.79497 0.541773 3.13991L8.4175 10.9984L0.541773 18.857C0.370104 19.0273 0.233846 19.2299 0.14086 19.4531C0.0478743 19.6763 0 19.9157 0 20.1576C0 20.3994 0.0478743 20.6388 0.14086 20.862C0.233846 21.0853 0.370104 21.2879 0.541773 21.4581C0.712041 21.6298 0.914614 21.7661 1.13781 21.8591C1.361 21.9521 1.6004 22 1.84218 22C2.08397 22 2.32337 21.9521 2.54656 21.8591C2.76975 21.7661 2.97233 21.6298 3.14259 21.4581L11 13.5813L18.8574 21.4581C19.0277 21.6298 19.2302 21.7661 19.4534 21.8591C19.6766 21.9521 19.916 22 20.1578 22C20.3996 22 20.639 21.9521 20.8622 21.8591C21.0854 21.7661 21.288 21.6298 21.4582 21.4581C21.6299 21.2879 21.7662 21.0853 21.8591 20.862C21.9521 20.6388 22 20.3994 22 20.1576C22 19.9157 21.9521 19.6763 21.8591 19.4531C21.7662 19.2299 21.6299 19.0273 21.4582 18.857L13.5825 10.9984Z" fill="var(--fill-0, white)" fill-opacity="0.6"/>
</svg>
